<?xml version="1.0" encoding="utf-8"?>
<!-- Generator: Adobe Illustrator 21.0.0, SVG Export Plug-In . SVG Version: 6.00 Build 0)  -->
<svg version="1.1" id="Logo" xmlns="http://www.w3.org/2000/svg" xmlns:xlink="http://www.w3.org/1999/xlink" x="0px" y="0px"
	 viewBox="0 0 954 685" style="enable-background:new 0 0 954 685;" xml:space="preserve">
<style type="text/css">
	.st0{fill:#364F2F;}
	.st1{fill:#859B80;}
</style>
<g id="LIF_2_">
	<path id="L_2_" class="st0" d="M291.6,525.9c0,4.2-0.7,7.7-1.8,11.2c-8.1-1.1-16.5-1.4-26-1.4c-22.5,0-44.2,2.1-89.8,9.5
		c-10.5-3.9-22.1-15.4-31.2-30.9c9.1-21,28.8-58.9,55.1-135.8c17.2-50.2,22.8-71.9,34-123.5c18.6,3.9,31.6,13.3,44.2,31.9
		c-7,11.9-25.6,56.1-47,111.9c-20.7,54.7-40.7,99.3-41,113c14.7-0.7,22.8-2.1,44.2-7.4c18.9-4.6,29.8-6.3,50.5-7.7
		C288.8,506.9,291.6,516.7,291.6,525.9z"/>
	<path id="I_2_" class="st0" d="M441.7,385.7c8.8-2.4,35-3.5,40-0.3c-32.5,31.1-47.5,126.8-39.1,153.5c0.7,2.2,1.4,3.1,2.2,3.5
		c-19.6,5.6-17.6-2-26.5-1.2c-6.4,0.6-13.1-9-14.4-13.1C395.6,501.9,420.8,408,441.7,385.7z"/>
	<path id="F_2_" class="st0" d="M749.4,394.3c0,3.5-0.4,8.1-1.8,10.9c-6-1.1-13.3-1.8-23.5-1.8c-20.7,0-42.8,4.9-61.7,7.4
		c-21,49.5-34.4,92.3-41.7,134.4c-15.8-3.5-27.4-13-38.2-30.9c7-14.7,17.2-40,42.5-104.5c-9.5-3.2-16.5-9.5-19.3-17.2
		c2.5-2.5,14-5.6,29.5-9.1c13.7-36.5,20.7-55.1,26.7-83.5h-1.8c-17.9,0-29.8-9.1-29.8-22.8c0-3.5,1.4-9.8,3.2-13.3
		c8.8,1.4,16.1,1.8,30.2,1.8c58.6,0,104.5-7.7,120.3-7.7c10.9,0,19.6,11.9,24.2,32.3c-14.7-1.4-23.2-1.8-30.2-1.8
		c-23.5,0-43.2,2.5-61,5.3c-5.6,8.4-12.3,22.5-38.6,81.7c18.2-2.8,35.8-4.9,47-4.9C740.3,370.4,749.4,379.2,749.4,394.3z"/>
</g>
<g id="Leaves_2_">
	<path id="_x31_1_2_" class="st1" d="M411.9,172.7c5.3,7.3,8.9,15,10.7,22.6c1.8,7.6,1.8,15,0.4,21.7c-6.6-4.9-12.7-10.1-18.2-15.7
		c-5.6-5.6-10.6-11.4-15.3-17.8c-4.6-6.3-8.6-12.8-11.9-19.4c-3.4-6.7-6.1-13.6-8.1-20.6c8,2.4,15.8,5.9,23.1,10.8
		C399.9,159.2,406.5,165.4,411.9,172.7z"/>
	<path id="_x31_0_2_" class="st1" d="M365,189.4c11,7.5,15.9,16,16.1,23.9c-14-4.1-26.3-9.8-36.4-16.6c-5.1-3.4-9.3-6.9-13-10.3
		c-1.8-1.8-3.6-3.4-5.3-5.2c-0.9-0.8-1.8-1.7-2.7-2.6c-1-0.9-2-1.7-3-2.6c2,0,4,0.1,6.2,0.3c2.1,0.2,4.1,0.5,6.2,0.8
		c4.1,0.7,8.2,1.7,11.9,2.9C352.8,182.4,359.5,185.7,365,189.4z"/>
	<path id="_x39__2_" class="st1" d="M368.3,254.1c-9.7-4.6-18.4-10.3-26.2-16.7c-3.9-3.2-7.6-6.7-11-10.2
		c-3.5-3.6-6.7-7.3-10.2-10.9c4.8-1.7,10.1-2.4,15.3-2.7c5.2-0.3,10.5-0.1,15.8,0.6c10.5,1.3,21,4.3,31,9
		c10,4.7,18.9,10.9,26.6,18.1c3.8,3.6,7.3,7.5,10.5,11.6c1.6,2.1,3.1,4.2,4.4,6.4c0.7,1.1,1.3,2.2,1.9,3.4c0.3,0.6,0.6,1.2,0.9,1.8
		c0.1,0.3,0.3,0.6,0.4,0.9c0.1,0.3,0.3,0.7,0.1,1c-0.4-0.4-1.1-0.3-1.6-0.4l-1.8-0.1c-1.2,0-2.5-0.1-3.7-0.1c-2.5-0.1-5-0.2-7.5-0.3
		c-5-0.3-10-0.9-15.1-1.9C387.9,261.9,377.9,258.7,368.3,254.1z"/>
	<path id="_x38__2_" class="st1" d="M388.2,391.2c6.1-4.3,12.6-8.6,19.8-12.3c7.2-3.7,15.2-6.8,23.2-8.1c-2.7,6.2-5.4,12.1-9.5,18.1
		c-4,5.9-9.4,12-16.8,17.3c-7.4,5.3-16.2,9.3-25,11.3c-8.8,2.1-17.5,2.2-25.2,1c5.5-5.1,11.1-9.7,16.5-14.2
		C376.7,399.8,382.1,395.5,388.2,391.2z"/>
	<path id="_x37__2_" class="st1" d="M502.1,438.5c-8.4-20.1-9.4-41-4.6-59.8c15.5,12.7,27.9,29,35.9,48c4,9.5,6.7,19,8.4,28.4
		c0.9,4.7,1.5,9.4,2,14.1c0.2,2.4,0.5,4.6,0.7,7c0.2,2.4,0.6,4.6,0.9,7.1c-2.3-0.9-4.8-1.8-7.1-3.1c-2.2-1.3-4.6-2.6-6.7-4.2
		c-4.3-3.1-8.3-6.6-12-10.5C512.2,457.7,506.3,448.6,502.1,438.5z"/>
	<path id="_x36__2_" class="st1" d="M547.6,415.8c-3.6-3.6-6.8-7.6-9.6-11.7c-1.4-2.1-2.7-4.2-3.9-6.4c-0.6-1.1-1.2-2.2-1.7-3.3
		c-0.3-0.6-0.5-1.1-0.8-1.7c-0.3-0.5-0.5-1.1-0.9-1.6c0.6-0.2,1.3-0.1,1.9-0.1c0.6,0,1.2,0.1,1.9,0.1c1.2,0.1,2.5,0.3,3.7,0.6
		c2.4,0.5,4.8,1.2,7.2,2.2c4.7,2,9.1,4.9,13.1,8.9c3.9,4,7.1,8.7,9.2,14c2.1,5.2,3.1,11,2.6,16.6c-3.8-2.8-7.6-5.2-11.4-8
		C554.9,422.6,551.2,419.5,547.6,415.8z"/>
	<path id="_x35__3_" class="st1" d="M575.5,239.3c12.1-0.9,25.3,3.4,35.9,10.9c-8.6,4-17.7,6.7-28.3,7.5c-5.3,0.4-10.6,0.2-16-0.3
		c-2.8-0.3-5.4-0.6-8.2-1.1c-2.8-0.5-5.5-1-8.4-1.7C554.4,246,563.4,240.1,575.5,239.3z"/>
	<path id="_x34__3_" class="st1" d="M533.3,203.9c18.9-11.2,39.9-16,60.1-14.5c-9.9,17.6-24.1,33-42.6,44
		c-9.2,5.5-18.9,9.5-28.7,12.3c-4.9,1.4-9.8,2.4-14.7,3.2c-2.5,0.4-4.9,0.7-7.3,1.1c-1.2,0.2-2.4,0.3-3.6,0.5
		c-0.6,0.1-1.2,0.2-1.8,0.3c-0.6,0.2-1.2,0.2-1.6,0.7c-0.3-0.6,0-1.4,0.1-2c0.2-0.7,0.4-1.3,0.6-1.9c0.5-1.3,1-2.5,1.6-3.7
		c1.1-2.4,2.4-4.7,3.8-6.9c2.8-4.4,5.9-8.6,9.4-12.6C515.6,216.4,523.9,209.5,533.3,203.9z"/>
	<path id="_x33__3_" class="st1" d="M533.5,169.6c5.4-3.5,11.6-5.7,17.8-6.2c1.5-0.2,3.1-0.1,4.6,0c0.8,0.1,1.5,0.2,2.3,0.3
		c0.7,0.1,1.5,0.2,2.2,0.4c2.9,0.7,5.7,1.9,7.6,3.8c-2.5,0.8-4.7,2.1-6.8,3.4c-0.5,0.3-1,0.6-1.5,1c-0.5,0.3-1,0.7-1.5,1
		c-1,0.8-2,1.4-3,2.1c-4,2.9-8,5.7-12.5,8.6c-1.1,0.7-2.2,1.4-3.4,2.1c-1.1,0.7-2.3,1.3-3.5,2c-1.1,0.7-2.3,1.3-3.5,1.9
		c-0.6,0.3-1.2,0.6-1.8,0.9c-0.6,0.3-1.2,0.6-1.8,0.9c-1.2,0.6-2.4,1.1-3.7,1.6c-1.3,0.5-2.5,1-3.7,1.5c-2.5,1-5,1.8-7.7,2.4
		c0.7-2.6,1.6-5.1,2.7-7.7c0.5-1.3,1.2-2.5,1.9-3.7c0.7-1.2,1.5-2.4,2.3-3.6c0.4-0.6,0.8-1.2,1.3-1.8c0.5-0.6,0.9-1.1,1.4-1.7
		c1-1.1,2-2.2,3-3.3c1.1-1.1,2.3-2,3.5-3C530.8,171.4,532.1,170.4,533.5,169.6z"/>
	<path id="_x32__3_" class="st1" d="M503.7,174.7c1,8.1,0.3,16-2.1,23.5c-1.2,3.8-2.8,7.4-4.9,10.9c-2.1,3.5-4.6,6.9-8,9.6
		c-1.6-3.4-3.6-6.5-5.4-9.9c-1.8-3.3-3.5-6.7-5-10.2c-3-7-5.1-14.4-6.1-22.2c-1-7.8-0.7-15.3,0.6-22.6c0.6-3.6,1.5-7.2,2.5-10.6
		c0.5-1.7,1-3.4,1.5-5.1c0.2-0.8,0.5-1.7,0.7-2.5c0.1-0.4,0.2-0.8,0.2-1.2c0-0.4,0.1-0.8-0.3-1.2c0.7,0,1.4,0.3,1.9,0.6
		c0.6,0.3,1.1,0.6,1.6,1c1,0.7,1.9,1.4,2.8,2.1c1.7,1.5,3.3,3,4.7,4.6c2.9,3.2,5.4,6.6,7.5,10.2C500,158.8,502.7,166.6,503.7,174.7z
		"/>
	<path id="_x31__3_" class="st1" d="M471.2,229c0.9,11.2-0.1,22.3-3,32.7c-0.7,2.6-1.6,5.2-2.5,7.7c-0.9,2.5-2.1,5-3.3,7.3
		c-2.4,4.7-5.4,9.2-8.9,12.8c-1.9-4.8-3.7-9.2-5.6-13.8c-0.9-2.3-1.8-4.6-2.6-6.9c-0.8-2.3-1.6-4.6-2.4-7c-3-9.5-5-19.5-5.9-30
		c-1.8-21.1,1.9-41.2,8.9-60.1C460.2,186.3,469.3,206.6,471.2,229z"/>
</g>
<path id="Infinity_2_" class="st1" d="M491.9,353.9c4.3,3.1,9.5,6.4,15.9,9.6c3.2,1.6,6.7,3.3,10.7,4.7c4,1.5,8.4,2.9,13.6,3.7
	c1.3,0.2,2.6,0.4,4.1,0.5c0.7,0.1,1.4,0.1,2.1,0.2c0.6,0,1.3,0,1.9,0c1.3,0,2.6,0,3.9,0c1.3,0,2.6-0.2,4-0.2c2.7-0.1,5.4-0.6,8.2-1
	c1.4-0.2,2.8-0.6,4.2-0.9c1.4-0.3,2.9-0.7,4.3-1.2c5.7-1.7,11.6-4.3,17.3-7.9c5.7-3.6,11.3-8.4,15.9-14.9c4.6-6.4,7.9-14.7,8.3-23.4
	c0.5-8.7-1.8-17.5-6-24.7c-4.2-7.2-9.9-12.8-16.1-17.2c-6.2-4.4-12.9-7.5-19.8-9.6c-6.2-1.9-12.7-3.2-19.5-3.7
	c-3.4-0.1-6.6-0.4-10.9,0c-3.9,0.4-7.5,1-11,1.9c-13.9,3.6-26.2,9.4-38.7,16.2c-12.5,6.8-24.5,14.3-36.5,22.7c-1.4,1-2.8,2-4.3,3
	c-1.4,1-2.8,1.9-4.2,2.9c-2.8,1.9-5.7,3.8-8.6,5.7c-5.8,3.7-11.8,7.3-17.8,10.7c-6.1,3.4-12.2,6.5-18.3,9.2
	c-3.1,1.4-6.1,2.6-9.2,3.7c-3,1.1-6,2-8.9,2.7c-2.9,0.7-5.6,1.1-8,1.1l-4.5-0.1l-4.5-0.4c-5.9-0.8-11.6-2.5-16.7-5
	c-5-2.5-9.4-5.9-12.2-9.6c-2.8-3.8-4.3-7.7-4.4-11.7c0-4,1.3-7.9,3.7-11.6c2.4-3.6,6-6.9,9.9-9.4c4-2.6,8.4-4.4,12.8-5.8
	c2.2-0.7,4.4-1.1,6.6-1.7c2.2-0.3,4.4-0.8,6.6-0.8c1.1-0.1,2.2-0.2,3.2-0.2c0.9,0,1.8-0.1,2.8,0.1c1,0.1,1.9,0.1,2.9,0.3
	c1,0.1,2,0.3,2.9,0.5c3.9,0.7,7.8,1.8,11.5,3c7.4,2.4,13.4,5,18.2,7c4.8,2,8.2,3.5,10.4,4.3c6-2.4,7.3-6.1,3.6-11.1
	c-3.8-5-10.1-10.5-19.8-15.9c-4.9-2.6-10.1-5.1-16.2-7.1c-3-1-6.2-1.8-9.8-2.4c-0.9-0.1-1.8-0.3-2.7-0.4c-0.9-0.1-1.9-0.1-2.9-0.2
	c-1-0.1-1.9-0.1-2.7,0c-0.9,0-1.7,0-2.6,0c-13.8,0.4-25.6,3.9-34.7,8.6c-0.6,0.4-1.9,1-3.8,2.3c-0.9,0.6-2.1,1.4-3.3,2.2
	c-1.2,1-2.6,2-4.1,3.3c-1.5,1.3-3.1,2.8-4.7,4.6c-1.6,1.9-3.4,3.8-4.9,6.3c-3.2,4.8-6.4,11.3-7.4,19.4c-1,8,0.4,17,4.4,24.8
	c4,7.9,10,14.5,17.2,19.6c7.2,5.1,15.4,8.8,24.3,11.1c4.4,1.2,9,1.9,13.7,2.4c2.4,0.2,4.7,0.3,7.2,0.4c1.3,0,2.8-0.1,4.2-0.1
	c1.3-0.1,2.7-0.3,4-0.4c5.2-0.7,10-1.9,14.6-3.4c4.6-1.4,9-3.1,13.3-4.9c8.6-3.6,16.9-7.9,25.1-12.4c8.2-4.6,16.3-9.5,24.4-14.9
	c2-1.3,4.1-2.7,6.1-4.1l2.9-2l2.8-1.9c3.8-2.6,7.7-5.1,11.7-7.6c8-5,16-9.7,24.1-13.8c8-4.2,16.1-7.9,23.9-10.4
	c3.8-1.2,7.6-2.2,10.8-2.5l1.1-0.1l0.6,0l0.7,0l2.9,0c1,0,1.9,0.1,2.8,0.2c0.9,0.1,1.9,0.1,2.8,0.3c1.8,0.3,3.7,0.5,5.5,1
	c0.9,0.2,1.8,0.4,2.7,0.7l2.6,0.8c3.4,1.2,6.8,2.6,9.6,4.5c2.9,1.9,5.5,3.9,7.4,6.2c1.9,2.3,3.3,4.7,4.2,7.2c0.9,2.5,1,5.1,0.7,7.7
	c-0.1,1.3-0.5,2.6-0.8,3.9c-0.6,1.3-1,2.6-1.8,3.9l-0.5,1c-0.2,0.3-0.4,0.6-0.7,0.9c-0.5,0.6-0.9,1.2-1.3,1.8
	c-1.1,1.1-2,2.4-3.3,3.4c-2.3,2.3-5.1,4.1-7.9,5.8c-5.8,3.3-12.3,5.6-18.9,6.9c-1.6,0.4-3.3,0.6-4.9,0.8c-0.8,0.1-1.7,0.3-2.4,0.3
	c-0.7,0-1.4,0.1-2.2,0.1c-3,0.1-6.1-0.2-9.1-0.6c-6-0.9-11.8-2.2-17.1-3.6c-10.6-2.8-19.4-5.5-26.7-7.1
	C480.6,343.7,483.4,347.8,491.9,353.9z"/>
<g id="Olives">
	<path id="_x35__1_" class="st0" d="M414.1,154c9,38.3,34.2-2.3,9.8-11.6C415.1,139.1,412.7,148.1,414.1,154z"/>
	<path id="_x34__1_" class="st0" d="M338.8,254.2c-0.1,2.6-1.9,5.7-6.1,9.4c-9.4,8.3-32.4,11.1-41.5,1c-7.9-8.7,6.4-17.7,13.5-19.8
		C314.3,241.8,339.2,244.2,338.8,254.2z"/>
	<path id="_x33__1_" class="st0" d="M341,386.9c-1.1,0-2.2,0.1-3.3,0.3c-7.8,1.3-19.9,14-14.9,22c6.7,10.8,32.2-2.1,33.1-11.7
		C356.6,388.9,348.4,386.7,341,386.9z"/>
	<path id="_x32__1_" class="st0" d="M523,321.8c-3.6,3.7-4.6,8.5-0.9,14c2.6,3.8,7.2,5.8,11.8,6.3c4.6,0.4,9.1-0.5,13.5-1.5
		c11-2.6,27.2-13.5,13-24.2C552.3,310.2,531.2,313.3,523,321.8z"/>
	<path id="_x31__1_" class="st0" d="M593.4,228.2c3.6,3,8.2,4.4,12.6,5.5c8.8,2.1,37.7,4,26.4-15.5c-6.7-11.6-25.4-12.6-35.3-9
		C588.4,212.4,583.3,219.9,593.4,228.2z"/>
</g>
</svg>
